<svg id="svg" version="1.1" xmlns="http://www.w3.org/2000/svg" viewBox="0 0 500 500" style="display: block;"><path d="M0 0 C165 0 330 0 500 0 C500 165 500 330 500 500 C335 500 170 500 0 500 C0 335 0 170 0 0 Z " transform="translate(0,0)" style="fill: #000000;"/><path d="M0 0 C1.32 0 2.64 0 4 0 C4.08636719 0.87140625 4.17273438 1.7428125 4.26171875 2.640625 C5.82224543 15.86930986 9.93506525 29.28541531 20.54296875 38.1171875 C23.32640854 40.1350832 26.1535537 42.07226878 29 44 C44.45255474 55.15632876 52.71798162 69.33015512 58.6640625 87.2578125 C59.82710814 90.16493068 59.82710814 90.16493068 62.51171875 91.921875 C65.81200273 94.67815612 66.19876145 96.9887051 67.1875 101.125 C68.19251111 106.06072276 68.19251111 106.06072276 71 110 C72.99172182 110.69100553 74.99161804 111.35902703 77 112 C77.33 112.33 77.66 112.66 78 113 C76.90196078 128.09803922 76.90196078 128.09803922 73 132 C72.13184656 137.51595519 71.86261687 142.86255957 71.90234375 148.4375 C71.9037587 149.20304199 71.90517365 149.96858398 71.90663147 150.75732422 C71.91217147 153.17159142 71.92471221 155.58576144 71.9375 158 C71.94252277 159.64973823 71.94708431 161.29947794 71.95117188 162.94921875 C71.96212114 166.96618255 71.97934334 170.98307487 72 175 C75.47325181 176.1577506 78.36067448 176.06866652 82 176 C81.66613281 175.45472656 81.33226562 174.90945313 80.98828125 174.34765625 C79.7808909 171.47950763 79.96489095 169.52462547 80.1875 166.4375 C80.31308425 163.56326044 80.31308425 163.56326044 80 161 C77.73280255 158.95581316 77.73280255 158.95581316 75 158 C73.14465038 155.12231488 72.72704346 152.82932852 72.75 149.4375 C72.74484375 148.67308594 72.7396875 147.90867187 72.734375 147.12109375 C73 145 73 145 75 142 C78.625 141.3125 78.625 141.3125 82 141 C82.12955078 140.07767578 82.12955078 140.07767578 82.26171875 139.13671875 C83.42200815 132.46239348 83.42200815 132.46239348 86.5 130 C87.325 129.67 88.15 129.34 89 129 C89.66 128.67 90.32 128.34 91 128 C91.042721 126.33388095 91.04063832 124.66617115 91 123 C90.67 122.67 90.34 122.34 90 122 C89.4421535 117.31408944 90.48882724 114.7070623 92.9765625 110.74609375 C94.41356773 108.29440926 95.20492569 105.71650388 96 103 C97.98 103 99.96 103 102 103 C102.26554687 103.60328125 102.53109375 104.2065625 102.8046875 104.828125 C103.33449219 106.02695312 103.33449219 106.02695312 103.875 107.25 C104.22304688 108.03890625 104.57109375 108.8278125 104.9296875 109.640625 C105.61604194 111.1536107 106.34362652 112.64893928 107.12109375 114.1171875 C109.15342777 118.4708986 107.86614442 123.45274178 107 128 C107.94875 128.4125 108.8975 128.825 109.875 129.25 C113.1165736 131.06528122 113.92277885 131.57247816 115 135 C115.38290462 136.99110401 115.72604615 138.99100513 116 141 C117.98 141 119.96 141 122 141 C126 149.69565217 126 149.69565217 126 154 C123.56754989 156.97299458 121.19086664 158.87275557 118 161 C117.71091418 163.53415781 117.71091418 163.53415781 117.9375 166.375 C118.14165233 170.2591289 118.04421664 172.64334855 116 176 C117.74991334 176.02715383 119.49994945 176.04646551 121.25 176.0625 C122.22453125 176.07410156 123.1990625 176.08570313 124.203125 176.09765625 C126.65758678 176.01195577 128.66168914 175.70706066 131 175 C131.41809201 172.16848027 131.41809201 172.16848027 131 169 C130.154375 168.38125 129.30875 167.7625 128.4375 167.125 C126 165 126 165 125.8203125 163.046875 C126.20264839 159.61818542 126.52027689 157.47972311 129 155 C130.32 155 131.64 155 133 155 C133 153.35 133 151.7 133 150 C134.32 149.34 135.64 148.68 137 148 C136.95359375 147.43152344 136.9071875 146.86304688 136.859375 146.27734375 C136.57650029 140.2258455 137.59410766 137.00240438 141 132 C142.32 132 143.64 132 145 132 C148.10696646 137.34009861 149 140.75167907 149 147 C150.9600281 148.63676257 150.9600281 148.63676257 153 150 C153.25 152.6875 153.25 152.6875 153 155 C154.2065625 155.185625 154.2065625 155.185625 155.4375 155.375 C156.283125 155.58125 157.12875 155.7875 158 156 C159.52491998 159.04983996 159.23562548 161.6423369 159 165 C158 166 157 167 156 168 C155.67 170.64 155.34 173.28 155 176 C170.18 176 185.36 176 201 176 C201 177.32 201 178.64 201 180 C194.20069165 180.02529479 187.40139537 180.04284349 180.60205078 180.05493164 C178.28759304 180.05996943 175.9731385 180.06679981 173.65869141 180.07543945 C170.3375571 180.08752924 167.01646475 180.09323375 163.6953125 180.09765625 C162.13588425 180.10539818 162.13588425 180.10539818 160.54495239 180.11329651 C159.58410736 180.11337204 158.62326233 180.11344757 157.63330078 180.11352539 C156.36089035 180.11685631 156.36089035 180.11685631 155.06277466 180.12025452 C153 180 153 180 151 179 C150.91866209 177.08404032 150.86065633 175.16708068 150.8125 173.25 C150.77769531 172.18265625 150.74289062 171.1153125 150.70703125 170.015625 C151.0305912 166.68511459 151.65188574 165.34242876 154 163 C154.66 163 155.32 163 156 163 C155.67 162.01 155.34 161.02 155 160 C154.195625 159.731875 153.39125 159.46375 152.5625 159.1875 C150 158 150 158 148.875 154.9375 C148.58625 153.968125 148.2975 152.99875 148 152 C147.01 151.67 146.02 151.34 145 151 C144.29826347 146.61414671 143.89165625 142.44209357 144 138 C143.34 138 142.68 138 142 138 C142.05800781 138.74765625 142.11601562 139.4953125 142.17578125 140.265625 C142.31229783 143.24558685 142.36073696 146.03680357 142 149 C139.5625 151.375 139.5625 151.375 137 153 C136.835 153.86625 136.67 154.7325 136.5 155.625 C136.335 156.40875 136.17 157.1925 136 158 C133.4375 159.3125 133.4375 159.3125 131 160 C131.61277612 162.96175123 132.25372522 164.38058783 134 167 C135.11290525 171.0064589 135.1593063 174.85803607 135 179 C132.84822304 181.15177696 128.1611484 180.23157305 125.1875 180.25 C123.95676758 180.2809375 123.95676758 180.2809375 122.70117188 180.3125 C116.5980233 180.35209869 116.5980233 180.35209869 113.42578125 178.484375 C112.72001953 177.74960937 112.72001953 177.74960937 112 177 C112.16757812 176.30132812 112.33515625 175.60265625 112.5078125 174.8828125 C113.20367708 170.80703424 112.91677221 166.86033267 112.7421875 162.7421875 C113 160 113 160 114.33984375 158.20703125 C116.42998788 156.68737352 118.5705693 155.85358376 121 155 C120.67 151.7 120.34 148.4 120 145 C117.36 145 114.72 145 112 145 C111.34 141.37 110.68 137.74 110 134 C109.05125 133.71125 108.1025 133.4225 107.125 133.125 C104 132 104 132 102 130 C101.72668272 126.37854601 101.57344038 123.83179126 103.25 120.5625 C104.17912635 117.38798496 103.60114515 116.68220876 102.125 113.8125 C101.73570312 113.13832031 101.34640625 112.46414063 100.9453125 111.76953125 C100 110 100 110 100 108 C99.34 108 98.68 108 98 108 C97.71125 109.0725 97.4225 110.145 97.125 111.25 C96 115 96 115 94.75 117.1875 C94.5025 117.785625 94.255 118.38375 94 119 C94.64808564 120.34246312 95.31822584 121.67432801 96 123 C96.375 126.5625 96.375 126.5625 96 130 C94.08550761 131.98286712 92.50876361 132.81403148 89.9375 133.75390625 C87.77242353 134.86476722 87.77242353 134.86476722 87.171875 137.3828125 C87.03265625 138.28773438 86.8934375 139.19265625 86.75 140.125 C86.60046875 141.03507813 86.4509375 141.94515625 86.296875 142.8828125 C86.14992188 143.93082031 86.14992188 143.93082031 86 145 C83.36 145 80.72 145 78 145 C76.7624082 150.07548945 76.7624082 150.07548945 78.125 154.75 C79.57669014 155.71779343 81.07890034 156.61002485 82.59765625 157.46875 C85.73039356 160.76958541 85.52352276 162.70021982 85.43945312 167.10546875 C85.39755859 167.97816406 85.35566406 168.85085938 85.3125 169.75 C85.28994141 170.63816406 85.26738281 171.52632812 85.24414062 172.44140625 C85.18532552 174.62932812 85.10321268 176.81379671 85 179 C78.66414147 181.11195284 74.21648567 180.07216189 68 178 C67.67 169.42 67.34 160.84 67 152 C66.01 151.67 65.02 151.34 64 151 C63.401875 150.01 62.80375 149.02 62.1875 148 C60.28614485 144.71162492 60.28614485 144.71162492 56.875 144.25 C55.92625 144.1675 54.9775 144.085 54 144 C53.34 143.34 52.68 142.68 52 142 C48.49124666 142.15255449 46.46095407 142.68087795 43.5625 144.6875 C41.66017278 146.98636683 41.66017278 146.98636683 42.25 150.25 C42.4975 151.1575 42.745 152.065 43 153 C44.32 153.33 45.64 153.66 47 154 C47.33 152.68 47.66 151.36 48 150 C46.35 150.33 44.7 150.66 43 151 C43.3125 148.125 43.3125 148.125 44 145 C47 143 47 143 49.75 143.1875 C53.4248018 144.10620045 56.56212348 145.4185768 60 147 C59.50669176 151.13262 57.46621121 152.70440351 54.3125 155.25 C53.46300781 155.95640625 52.61351562 156.6628125 51.73828125 157.390625 C48.50699187 159.28975656 46.68963387 159.41559063 43 159 C38.36764706 156.73529412 38.36764706 156.73529412 37 154 C36.95977609 151.6670134 36.95679753 149.33293334 37 147 C34.37812506 148.04874998 33.20628639 148.64931313 31.75 151.125 C31.5025 151.74375 31.255 152.3625 31 153 C28.61435923 152.42415568 26.33317216 151.77772405 24 151 C24.12375 151.886875 24.2475 152.77375 24.375 153.6875 C24 157 24 157 21.125 159.5625 C19.578125 160.7690625 19.578125 160.7690625 18 162 C16.60180488 164.6514482 16.60180488 164.6514482 16 167 C14.0625 166.625 14.0625 166.625 12 166 C11.67 165.34 11.34 164.68 11 164 C9.68 164.99 8.36 165.98 7 167 C7.99 167.66 8.98 168.32 10 169 C9.67 170.65 9.34 172.3 9 174 C6.625 174.125 6.625 174.125 4 174 C3.34 173.34 2.68 172.68 2 172 C1.34 172.66 0.68 173.32 0 174 C-2.625 174.125 -2.625 174.125 -5 174 C-5.6875 172.1875 -5.6875 172.1875 -6 170 C-4.5625 168.25 -4.5625 168.25 -3 167 C-4.32 166.01 -5.64 165.02 -7 164 C-7.66 164.99 -8.32 165.98 -9 167 C-12.43632231 165.85455923 -13.33471585 164.7288492 -15.625 162 C-16.23601562 161.278125 -16.84703125 160.55625 -17.4765625 159.8125 C-17.97929687 159.214375 -18.48203125 158.61625 -19 158 C-19.33 157.67 -19.66 157.34 -20 157 C-20.04080783 155.00041636 -20.04254356 152.99954746 -20 151 C-21.0725 151.2475 -22.145 151.495 -23.25 151.75 C-27 152 -27 152 -29.4375 150.0625 C-29.953125 149.381875 -30.46875 148.70125 -31 148 C-30.9175 149.051875 -30.835 150.10375 -30.75 151.1875 C-31 155 -31 155 -32.5625 157.875 C-35.81701608 160.71227043 -37.6947068 161.07297107 -42 161 C-46.50028776 159.30533097 -49.74623091 156.49478902 -53 153 C-53.66 152.67 -54.32 152.34 -55 152 C-53.93813626 148.57843906 -52.93942552 147.96799839 -49.6875 146.25 C-44.17740512 144.38217123 -44.17740512 144.38217123 -41 145 C-39.1875 146.75 -39.1875 146.75 -38 149 C-38 150.32 -38 151.64 -38 153 C-39.65 152.67 -41.3 152.34 -43 152 C-42.34 153.32 -41.68 154.64 -41 156 C-38.56996323 155.0593406 -37.27925791 154.50615495 -36 152.1875 C-35.81582008 149.8197668 -35.81582008 149.8197668 -37.5 147.4375 C-40.54636257 144.46729649 -43.02991487 143.45060803 -47 142 C-47.165 142.598125 -47.33 143.19625 -47.5 143.8125 C-49.55446985 146.80860187 -51.80473329 147.15428474 -55.22265625 148.09375 C-57.2184136 148.85506028 -57.2184136 148.85506028 -57.74609375 151.09375 C-57.82988281 151.7228125 -57.91367188 152.351875 -58 153 C-59.32 153 -60.64 153 -62 153 C-62.01981934 153.74685059 -62.03963867 154.49370117 -62.06005859 155.26318359 C-62.15508211 158.63415605 -62.26485259 162.00448929 -62.375 165.375 C-62.4059375 166.550625 -62.436875 167.72625 -62.46875 168.9375 C-62.52675781 170.61972656 -62.52675781 170.61972656 -62.5859375 172.3359375 C-62.6173584 173.37282715 -62.6487793 174.4097168 -62.68115234 175.47802734 C-63 178 -63 178 -65 180 C-67.56292317 180.17163731 -70.00345857 180.23264558 -72.5625 180.1875 C-73.26052734 180.18685547 -73.95855469 180.18621094 -74.67773438 180.18554688 C-79.85968842 180.14031158 -79.85968842 180.14031158 -81 179 C-81.27742966 175.88354012 -81.23176472 172.75235077 -81.25 169.625 C-81.270625 168.7484375 -81.29125 167.871875 -81.3125 166.96875 C-81.32023437 165.70417969 -81.32023437 165.70417969 -81.328125 164.4140625 C-81.3374707 163.6401416 -81.34681641 162.8662207 -81.35644531 162.06884766 C-80.90558819 159.45202349 -80.06134228 158.62451367 -78 157 C-75.3125 155.8125 -75.3125 155.8125 -73 155 C-73.2165625 153.0509375 -73.2165625 153.0509375 -73.4375 151.0625 C-73.51871094 150.33160156 -73.59992188 149.60070312 -73.68359375 148.84765625 C-73.81886614 146.98859771 -73.81886614 146.98859771 -75 146 C-77.32817964 145.63239269 -79.6618385 145.29758419 -82 145 C-82.99 139.555 -82.99 139.555 -84 134 C-84.94875 133.71125 -85.8975 133.4225 -86.875 133.125 C-90 132 -90 132 -92 130 C-92.27331728 126.37854601 -92.42655962 123.83179126 -90.75 120.5625 C-89.82087365 117.38798496 -90.39885485 116.68220876 -91.875 113.8125 C-92.26429688 113.13832031 -92.65359375 112.46414063 -93.0546875 111.76953125 C-94 110 -94 110 -94 108 C-94.66 108 -95.32 108 -96 108 C-96.28875 109.0725 -96.5775 110.145 -96.875 111.25 C-98 115 -98 115 -99.25 117.1875 C-99.4975 117.785625 -99.745 118.38375 -100 119 C-99.35191436 120.34246312 -98.68177416 121.67432801 -98 123 C-97.375 126.4375 -97.375 126.4375 -98 130 C-99.71875 131.2109375 -99.71875 131.2109375 -101.875 132.3125 C-104.75332332 133.81777156 -105.7891443 134.45346202 -106.9765625 137.53125 C-107.44615712 140.02640949 -107.80345129 142.46943532 -108 145 C-109.11375 145.0825 -110.2275 145.165 -111.375 145.25 C-114.97466694 145.60939785 -114.97466694 145.60939785 -116.5 147.75 C-117.15417145 150.69377152 -117.12938227 152.17654432 -116 155 C-114.515 155.99 -114.515 155.99 -113 157 C-110 159 -110 159 -109.328125 161.17578125 C-108.93871949 164.52745012 -108.79267074 167.81295595 -108.75 171.1875 C-108.72421875 172.41855469 -108.6984375 173.64960938 -108.671875 174.91796875 C-108.78015625 175.93503906 -108.8884375 176.95210937 -109 178 C-112.07969063 180.05312708 -112.71968705 180.24997754 -116.1953125 180.23046875 C-117.39220703 180.22756836 -117.39220703 180.22756836 -118.61328125 180.22460938 C-119.44214844 180.21236328 -120.27101563 180.20011719 -121.125 180.1875 C-121.96160156 180.18685547 -122.79820313 180.18621094 -123.66015625 180.18554688 C-129.85966837 180.14033163 -129.85966837 180.14033163 -131 179 C-131.17830165 177.06791163 -131.26793417 175.12728628 -131.3125 173.1875 C-131.36857422 171.60001953 -131.36857422 171.60001953 -131.42578125 169.98046875 C-130.90439771 166.33078394 -129.66219709 165.42065653 -127 163 C-127 162.01 -127 161.02 -127 160 C-127.58136719 159.77957031 -128.16273438 159.55914062 -128.76171875 159.33203125 C-131.70351221 157.58133043 -132.96779829 155.5574675 -134.8125 152.6875 C-135.43769531 151.74261719 -136.06289062 150.79773438 -136.70703125 149.82421875 C-138.20186973 146.55905797 -137.9212617 145.37419162 -137 142 C-137.64644661 138.88214887 -137.64644661 138.88214887 -140 138 C-139.91878906 138.60585938 -139.83757812 139.21171875 -139.75390625 139.8359375 C-139.23268578 146.75008663 -140.99424186 150.45376251 -145.078125 155.96875 C-146.99141233 157.9909236 -148.54938412 158.78516478 -151 160 C-151.33 160.99 -151.66 161.98 -152 163 C-151.36578125 163.22945312 -150.7315625 163.45890625 -150.078125 163.6953125 C-148 165 -148 165 -147.171875 167.2421875 C-147.03265625 168.11101562 -146.8934375 168.97984375 -146.75 169.875 C-146.60046875 170.73867188 -146.4509375 171.60234375 -146.296875 172.4921875 C-146 175 -146 175 -146 179 C-148.46161017 180.23080509 -150.06496993 180.12043977 -152.81689453 180.11352539 C-153.81778107 180.11344986 -154.8186676 180.11337433 -155.84988403 180.11329651 C-156.93325043 180.10813522 -158.01661682 180.10297394 -159.1328125 180.09765625 C-160.23978485 180.0962413 -161.3467572 180.09482635 -162.48727417 180.09336853 C-166.03320993 180.08775772 -169.57908323 180.07520337 -173.125 180.0625 C-175.52473867 180.05748639 -177.92447833 180.05292325 -180.32421875 180.04882812 C-186.21616725 180.03778478 -192.10807916 180.0210361 -198 180 C-198 178.68 -198 177.36 -198 176 C-182.49 175.67 -166.98 175.34 -151 175 C-151.22412248 168.33220802 -151.22412248 168.33220802 -154.125 165.9375 C-156 164 -156 164 -156.0625 161.0625 C-154.75550057 157.29526636 -152.90228536 155.69980034 -150 153 C-146.39128863 148.56644031 -145.42293185 144.83697134 -144.50390625 139.34765625 C-143.88822023 136.47922758 -142.72863271 134.35722642 -141 132 C-138.6875 132.125 -138.6875 132.125 -136 133 C-133.75650197 136.28512211 -132.89861675 139.10851494 -132.5625 143 C-132.19584285 147.16076156 -130.48018417 149.63975048 -128 153 C-128 153.66 -128 154.32 -128 155 C-127.38125 155.061875 -126.7625 155.12375 -126.125 155.1875 C-124 156 -124 156 -122.6875 158.25 C-121.91739773 161.33040907 -121.95089112 163.01407474 -123 166 C-123.99 166.66 -124.98 167.32 -126 168 C-126.57748803 169.96361864 -126.57748803 169.96361864 -126.6875 172.125 C-126.790625 173.40375 -126.89375 174.6825 -127 176 C-122.38 175.67 -117.76 175.34 -113 175 C-113.2165625 173.4840625 -113.2165625 173.4840625 -113.4375 171.9375 C-114 168 -114 168 -114.125 164.4375 C-115.09813067 160.61448664 -115.62487667 160.24413987 -118.625 158 C-120.53515625 156.53125 -120.53515625 156.53125 -122 155 C-122.0830823 150.34739147 -120.59071344 146.34795008 -119 142 C-117.2984375 141.814375 -117.2984375 141.814375 -115.5625 141.625 C-114.386875 141.41875 -113.21125 141.2125 -112 141 C-110.77013963 138.85791064 -110.77013963 138.85791064 -110.75 135.5625 C-110 132 -110 132 -107.5625 130.0625 C-105 129 -105 129 -103 129 C-102.91878577 125.67021676 -103.03662233 122.83214765 -103.75 119.5625 C-104.02583145 115.63190179 -103.18537138 113.96365623 -101.05859375 110.7109375 C-99.56023069 108.28922894 -98.79591893 105.71938968 -98 103 C-96.02 103 -94.04 103 -92 103 C-91.73445313 103.60328125 -91.46890625 104.2065625 -91.1953125 104.828125 C-90.84210938 105.62734375 -90.48890625 106.4265625 -90.125 107.25 C-89.77695313 108.03890625 -89.42890625 108.8278125 -89.0703125 109.640625 C-88.0704269 111.96920075 -88.0704269 111.96920075 -86.84375 113.90625 C-85.66313061 116.83593516 -86.03609136 119.13204052 -86.375 122.25 C-86.48585938 123.32765625 -86.59671875 124.4053125 -86.7109375 125.515625 C-86.80632812 126.33546875 -86.90171875 127.1553125 -87 128 C-86.030625 128.474375 -85.06125 128.94875 -84.0625 129.4375 C-81 131 -81 131 -80 132 C-79.60851239 133.51165654 -79.26027543 135.03469632 -78.9375 136.5625 C-78.67259766 137.80193359 -78.67259766 137.80193359 -78.40234375 139.06640625 C-78.26957031 139.70449219 -78.13679688 140.34257812 -78 141 C-76.02 141 -74.04 141 -72 141 C-69.77343836 145.74354436 -68.53851968 149.72250715 -68 155 C-68.5775 155.32871094 -69.155 155.65742188 -69.75 155.99609375 C-74.23634109 158.70091109 -74.23634109 158.70091109 -76.49609375 163.15625 C-76.45676979 164.68726299 -76.36211826 166.21776716 -76.21484375 167.7421875 C-75.90843206 170.96229584 -76.45932142 173.82351334 -77 177 C-72.545 176.01 -72.545 176.01 -68 175 C-67.90055131 169.18339939 -67.8282587 163.36730208 -67.78027344 157.55004883 C-67.76025354 155.5743751 -67.73302908 153.59875991 -67.69824219 151.62329102 C-67.64929793 148.7708485 -67.62693475 145.91919451 -67.609375 143.06640625 C-67.58872986 142.19415909 -67.56808472 141.32191193 -67.54681396 140.42323303 C-67.54482257 134.88527506 -68.54956062 130.88314396 -71.05786133 125.93566895 C-72.3240561 123.33421125 -72.81731973 120.78597843 -73.25 117.9375 C-73.39953125 116.99777344 -73.5490625 116.05804688 -73.703125 115.08984375 C-73.80109375 114.40019531 -73.8990625 113.71054687 -74 113 C-73.41992188 112.896875 -72.83984375 112.79375 -72.2421875 112.6875 C-68.73700899 111.66949436 -65.93379208 110.66170106 -64.06542969 107.33691406 C-62.91544545 104.60723617 -61.96824113 101.85190953 -61.11669922 99.015625 C-59.58215655 93.99133086 -57.43133363 91.06637049 -54 87 C-52.79095989 84.48870735 -51.93146299 81.89516509 -51.0625 79.25 C-45.23071954 62.80389109 -34.21013621 49.3536791 -19.375 40 C-9.45172903 33.52830154 -4.68874041 24.06622123 -1 13 C-0.77548542 10.77425665 -0.59217122 8.54418481 -0.4375 6.3125 C-0.35371094 5.13300781 -0.26992187 3.95351562 -0.18359375 2.73828125 C-0.12300781 1.83464844 -0.06242188 0.93101562 0 0 Z " transform="translate(248,160)" style="fill: #D2B773;"/><path d="M0 0 C4.4563301 1.02838387 6.48780043 3.27822286 9 7 C9 7.66 9 8.32 9 9 C8.34 9 7.68 9 7 9 C6.95875 9.763125 6.9175 10.52625 6.875 11.3125 C6 14 6 14 2.9375 15.8125 C1.968125 16.204375 0.99875 16.59625 0 17 C-3.39417765 13.87378374 -5.6062718 11.43458973 -7 7 C-4.78071806 4.09197539 -3.07030857 2.04687238 0 0 Z " transform="translate(249,251)" style="fill: #000000;"/><path d="M0 0 C0.45375 0.680625 0.9075 1.36125 1.375 2.0625 C4.48115293 5.53843304 7.89062911 7.64950378 11.85546875 10.05859375 C14 12 14 12 14.890625 15.10546875 C15 18 15 18 13.5625 19.875 C13.046875 20.24625 12.53125 20.6175 12 21 C11.7525 20.113125 11.505 19.22625 11.25 18.3125 C9.67520631 14.13929673 7.73776239 11.27435909 4.125 8.625 C1.00826488 7.7083132 -0.89814571 8.05045277 -4 9 C-8.36963083 12.45505693 -10.10720093 15.91932881 -12 21 C-13.625 19.3125 -13.625 19.3125 -15 17 C-13.86578141 12.52166594 -11.70580106 10.62851385 -8.0625 7.9375 C-4.8132375 5.52089092 -2.27272841 3.36783848 0 0 Z " transform="translate(250,191)" style="fill: #000000;"/><path d="M0 0 C5.875 0.875 5.875 0.875 7 2 C7.04080783 3.99958364 7.04254356 6.00045254 7 8 C8.32 8.66 9.64 9.32 11 10 C10.34 11.32 9.68 12.64 9 14 C6.96022723 10.75490696 5.33488128 7.59391114 4 4 C0.3948856 6.37127846 -2.46200167 8.44834816 -3.91015625 12.625 C-4.38173248 15.08418272 -4.7587028 17.50823704 -5 20 C-5.56847656 20.07476562 -6.13695312 20.14953125 -6.72265625 20.2265625 C-12.99008834 21.29380469 -16.57736941 23.47782467 -21 28 C-18.525 29.98 -18.525 29.98 -16 32 C-19.35291118 32.37254569 -20.6038423 32.31050198 -23.3125 30.1875 C-25 28 -25 28 -25 25 C-24.44570313 24.81824219 -23.89140625 24.63648438 -23.3203125 24.44921875 C-22.59585937 24.19785156 -21.87140625 23.94648438 -21.125 23.6875 C-20.40570313 23.44386719 -19.68640625 23.20023437 -18.9453125 22.94921875 C-16.66005095 22.03664453 -16.66005095 22.03664453 -15 19 C-12.37643538 18.01484622 -9.75475877 17.57761071 -7 17 C-6.9175 15.741875 -6.835 14.48375 -6.75 13.1875 C-6.27149604 9.22770636 -6.27149604 9.22770636 -4.0625 7.375 C-3.381875 6.92125 -2.70125 6.4675 -2 6 C-0.71991738 2.91222828 -0.71991738 2.91222828 0 0 Z " transform="translate(287,272)" style="fill: #000000;"/><path d="M0 0 C2.87839991 1.2903172 5.09054786 2.45406381 7 5 C8 7.8125 8 7.8125 8 11 C5.56357737 14.69154944 3.63576272 16.58480802 -0.0625 19 C-3.5326465 21.36265294 -4.88868944 23.4270129 -7 27 C-7.66 26.01 -8.32 25.02 -9 24 C-12.46958417 20.22427605 -16.15286634 17.40515905 -20.42578125 14.625 C-22 13 -22 13 -22.23046875 10.3125 C-22.15441406 9.549375 -22.07835937 8.78625 -22 8 C-21.34 7.67 -20.68 7.34 -20 7 C-19.649375 7.86625 -19.29875 8.7325 -18.9375 9.625 C-16.58167352 13.72869774 -14.12537852 16.62555853 -10 19 C-5.04029159 19.45088258 -2.29676747 17.77067709 1.5 14.8125 C4.56574741 11.9573498 4.56574741 11.9573498 5.25 7.875 C3.8937198 4.75555555 2.28646743 2.50773847 0 0 Z " transform="translate(257,301)" style="fill: #000000;"/><path d="M0 0 C2.95409701 1.37154504 5.44008376 2.98863724 8 5 C6.1875 7 6.1875 7 4 9 C3.01 9 2.02 9 1 9 C0.67 8.01 0.34 7.02 0 6 C-3.16984457 6.68851826 -3.16984457 6.68851826 -4.375 9.375 C-6.22088735 12.35681803 -7.91894701 13.41783765 -11 15 C-11.66 12.69 -12.32 10.38 -13 8 C-11.96875 7.79375 -10.9375 7.5875 -9.875 7.375 C-5.33187037 6.11661786 -3.08755593 3.46408714 0 0 Z " transform="translate(314,273)" style="fill: #000000;"/><path d="M0 0 C0.42410156 0.39832031 0.84820312 0.79664063 1.28515625 1.20703125 C5.32767445 4.85862461 8.88650302 7.12157254 14 9 C13.34 10.98 12.68 12.96 12 15 C8.17053157 13.54744301 6.87949705 11.57104439 5 8 C1.88214887 8.64644661 1.88214887 8.64644661 1 11 C-2.16115776 9.63016497 -2.9927092 9.0109362 -5 6 C-3.68 5.67 -2.36 5.34 -1 5 C-0.67 3.35 -0.34 1.7 0 0 Z " transform="translate(185,273)" style="fill: #000000;"/><path d="M0 0 C1.65 0 3.3 0 5 0 C4.525625 0.33 4.05125 0.66 3.5625 1 C1.77375208 3.28959734 1.76782238 4.23418421 1.5625 7.0625 C1.376875 8.361875 1.19125 9.66125 1 11 C-0.9375 12.0625 -0.9375 12.0625 -3 13 C-4.29920746 16.54588501 -4.29920746 16.54588501 -5 20 C-9.75 19.25 -9.75 19.25 -12 17 C-12.69100553 15.00827818 -13.35902703 13.00838196 -14 11 C-14.33 10.67 -14.66 10.34 -15 10 C-15.04063832 8.33382885 -15.042721 6.66611905 -15 5 C-14.34 4.67 -13.68 4.34 -13 4 C-12.81824219 4.78246094 -12.63648438 5.56492188 -12.44921875 6.37109375 C-12.19785156 7.38300781 -11.94648438 8.39492187 -11.6875 9.4375 C-11.44386719 10.44683594 -11.20023438 11.45617187 -10.94921875 12.49609375 C-10.63597656 13.32238281 -10.32273438 14.14867187 -10 15 C-9.01 15.33 -8.02 15.66 -7 16 C-6.7525 15.443125 -6.505 14.88625 -6.25 14.3125 C-5 12 -5 12 -2.9375 9.6875 C-0.59360564 6.4362917 -0.30966982 3.94829026 0 0 Z " transform="translate(218,227)" style="fill: #000000;"/><path d="M0 0 C0.680625 0.33 1.36125 0.66 2.0625 1 C5.56804552 2.1933772 8.3174731 2.27277977 12 2 C12.99 1.34 13.98 0.68 15 0 C16 1 16 1 16.0625 3.5625 C16.041875 4.366875 16.02125 5.17125 16 6 C10.92193071 6.84634488 6.15197086 7.17765417 1 7 C0 6 0 6 -0.0625 2.9375 C-0.041875 1.968125 -0.02125 0.99875 0 0 Z " transform="translate(242,289)" style="fill: #000000;"/><path d="M0 0 C0.515625 0.309375 1.03125 0.61875 1.5625 0.9375 C4.66665423 2.29059287 7.65115007 2.61359424 11 3 C11.07476562 3.56847656 11.14953125 4.13695312 11.2265625 4.72265625 C12.29380469 10.99008834 14.47782467 14.57736941 19 19 C20.32 17.68 21.64 16.36 23 15 C23 19 23 19 21.6875 20.484375 C20.125 21.65625 18.5625 22.828125 17 24 C16.31640625 22.27473958 15.6328125 20.54947917 14.94921875 18.82421875 C14.08829997 16.92405706 14.08829997 16.92405706 12.46875 15.5625 C10.58781988 13.56151052 10.316808 11.98921169 9.8125 9.3125 C9.65394531 8.50425781 9.49539063 7.69601563 9.33203125 6.86328125 C9.22246094 6.24839844 9.11289062 5.63351563 9 5 C8.43410156 4.89042969 7.86820312 4.78085938 7.28515625 4.66796875 C6.55167969 4.50941406 5.81820313 4.35085937 5.0625 4.1875 C4.33160156 4.03667969 3.60070312 3.88585937 2.84765625 3.73046875 C2.23792969 3.48941406 1.62820313 3.24835938 1 3 C0.67 2.01 0.34 1.02 0 0 Z " transform="translate(271,224)" style="fill: #000000;"/><path d="M0 0 C2.25 -0.25 2.25 -0.25 5 0 C6.37701298 1.28817344 7.70644173 2.62804426 9 4 C10.96879323 5.06011943 12.96435867 6.07470849 15 7 C13.875 9.875 13.875 9.875 12 13 C9 14.25 9 14.25 6 15 C5.01 15.66 4.02 16.32 3 17 C0.3125 16.125 0.3125 16.125 -2 15 C-2 14.67 -2 14.34 -2 14 C-1.14535156 13.81824219 -0.29070312 13.63648438 0.58984375 13.44921875 C1.69457031 13.19785156 2.79929688 12.94648438 3.9375 12.6875 C5.03964844 12.44386719 6.14179688 12.20023437 7.27734375 11.94921875 C8.62505859 11.47935547 8.62505859 11.47935547 10 11 C10.33 10.01 10.66 9.02 11 8 C10.443125 7.7525 9.88625 7.505 9.3125 7.25 C5.76614378 5.33305069 2.84261197 2.84261197 0 0 Z " transform="translate(223,291)" style="fill: #000000;"/><path d="M0 0 C1.65 0.33 3.3 0.66 5 1 C5 5.62 5 10.24 5 15 C3.02 15.33 1.04 15.66 -1 16 C-1.33 15.01 -1.66 14.02 -2 13 C-0.68 12.34 0.64 11.68 2 11 C1.72965366 8.56282742 1.72965366 8.56282742 1 6 C0.01 5.34 -0.98 4.68 -2 4 C-1.34 2.68 -0.68 1.36 0 0 Z " transform="translate(281,251)" style="fill: #000000;"/><path d="M0 0 C2.00720923 0.28674418 4.0085944 0.61866701 6 1 C5.67 1.99 5.34 2.98 5 4 C4.34 4 3.68 4 3 4 C2.69100727 8.5318934 3.04787993 10.55585992 6 14 C6 14.66 6 15.32 6 16 C3.69 16 1.38 16 -1 16 C-1.02685095 13.52076199 -1.04676547 11.0418116 -1.0625 8.5625 C-1.07506836 7.50192383 -1.07506836 7.50192383 -1.08789062 6.41992188 C-1.09653588 4.61306441 -1.05220011 2.80612397 -1 1 C-0.67 0.67 -0.34 0.34 0 0 Z " transform="translate(215,251)" style="fill: #000000;"/><path d="M0 0 C1.27875 0.00257813 2.5575 0.00515625 3.875 0.0078125 C5.15375 0.00523437 6.4325 0.00265625 7.75 0 C10.875 0.1328125 10.875 0.1328125 11.875 1.1328125 C11.91563832 2.79898365 11.917721 4.46669345 11.875 6.1328125 C9.4375 5.7578125 9.4375 5.7578125 6.875 5.1328125 C6.545 4.4728125 6.215 3.8128125 5.875 3.1328125 C4.555 3.1328125 3.235 3.1328125 1.875 3.1328125 C0.885 4.6178125 0.885 4.6178125 -0.125 6.1328125 C-1.445 6.1328125 -2.765 6.1328125 -4.125 6.1328125 C-4.167721 4.46669345 -4.16563832 2.79898365 -4.125 1.1328125 C-3.125 0.1328125 -3.125 0.1328125 0 0 Z " transform="translate(246.125,222.8671875)" style="fill: #000000;"/><path d="M0 0 C1.29640378 0.59393382 2.58698839 1.20057989 3.875 1.8125 C4.59429687 2.14894531 5.31359375 2.48539062 6.0546875 2.83203125 C8 4 8 4 10 7 C10.55299539 12.30875576 10.55299539 12.30875576 8.5 14.875 C8.005 15.24625 7.51 15.6175 7 16 C6.773125 14.80375 6.54625 13.6075 6.3125 12.375 C5.20594384 7.81954253 3.11010522 5.43748472 0 2 C0 1.34 0 0.68 0 0 Z " transform="translate(182,288)" style="fill: #000000;"/><path d="M0 0 C-1.13068534 2.54404202 -2.21924052 4.23858527 -4.125 6.3125 C-6.50553532 9.72460063 -6.31934909 11.92829904 -6 16 C-8.31752588 14.18628409 -9.01111203 12.96592312 -9.9375 10.125 C-10 7 -10 7 -8.3125 4.25 C-5.6959214 1.70413974 -3.72585797 0 0 0 Z " transform="translate(319,287)" style="fill: #000000;"/><path d="M0 0 C0.66 0 1.32 0 2 0 C-0.6142596 7.03839122 -0.6142596 7.03839122 -3 10 C-6.5 11 -6.5 11 -10 11 C-11.9375 9.5625 -11.9375 9.5625 -13 8 C-11.39125 7.9071875 -11.39125 7.9071875 -9.75 7.8125 C-5.31365441 6.85129179 -4.5083531 5.6231767 -2 2 C-1.34 2 -0.68 2 0 2 C0 1.34 0 0.68 0 0 Z " transform="translate(309,263)" style="fill: #000000;"/><path d="M0 0 C1.35439668 2.70879335 1.06501451 5.00933268 1 8 C3.475 8.99 3.475 8.99 6 10 C5.67 8.35 5.34 6.7 5 5 C6.9375 5.3125 6.9375 5.3125 9 6 C9.33 6.99 9.66 7.98 10 9 C8.875 10.5625 8.875 10.5625 7 12 C3.54604843 11.92804268 1.68845426 11.59962145 -0.9375 9.3125 C-2.37196808 6.19042242 -1.87074094 4.26527853 -1 1 C-0.67 0.67 -0.34 0.34 0 0 Z " transform="translate(205,280)" style="fill: #000000;"/><path d="M0 0 C3.71368887 1.23789629 4.77354181 2.85224877 7 6 C7 6.66 7 7.32 7 8 C9.97 8.495 9.97 8.495 13 9 C12 11 12 11 10.25 11.9375 C8 12 8 12 5.4375 9.8125 C0 3.53846154 0 3.53846154 0 0 Z " transform="translate(189,263)" style="fill: #000000;"/><path d="M0 0 C2.66753731 0.36793618 3.81998328 0.81998328 5.75 2.75 C7.28968329 5.52142992 7.62383128 6.88084359 7 10 C4.5 12.3125 4.5 12.3125 2 14 C2.16048828 13.11248047 2.16048828 13.11248047 2.32421875 12.20703125 C3.15099991 6.94236509 3.15099991 6.94236509 1.5625 1.9375 C1.046875 1.298125 0.53125 0.65875 0 0 Z " transform="translate(260,278)" style="fill: #000000;"/><path d="M0 0 C1.5625 1.125 1.5625 1.125 3 3 C2.75921963 6.85248595 2.15973378 8.76039934 0 12 C-1.625 9.3125 -1.625 9.3125 -3 6 C-2.34087445 3.5282792 -1.82026278 1.82026278 0 0 Z " transform="translate(250,176)" style="fill: #000000;"/><path d="M0 0 C0.7425 0.78375 1.485 1.5675 2.25 2.375 C4.54433318 4.56504531 6.12158858 5.82731386 9 7 C9 7.66 9 8.32 9 9 C5.7 9 2.4 9 -1 9 C-0.67 6.03 -0.34 3.06 0 0 Z " transform="translate(236,265)" style="fill: #000000;"/><path d="M0 0 C2.97 0 5.94 0 9 0 C9.33 0.66 9.66 1.32 10 2 C9.01 2.33 8.02 2.66 7 3 C5.59606607 4.63125378 5.59606607 4.63125378 4.375 6.5625 C3.60461398 7.72274804 2.8181085 8.87289369 2 10 C1.67 10 1.34 10 1 10 C0.67 6.7 0.34 3.4 0 0 Z " transform="translate(235,244)" style="fill: #000000;"/><path d="M0 0 C0.66 0 1.32 0 2 0 C1.375 2.375 1.375 2.375 0 5 C-2.8125 6.5 -2.8125 6.5 -6 7 C-8.8125 5.8125 -8.8125 5.8125 -11 4 C-11.33 3.01 -11.66 2.02 -12 1 C-11.443125 1.144375 -10.88625 1.28875 -10.3125 1.4375 C-9.1678125 1.7159375 -9.1678125 1.7159375 -8 2 C-6.7315625 2.37125 -6.7315625 2.37125 -5.4375 2.75 C-4.633125 2.8325 -3.82875 2.915 -3 3 C-1.2912354 1.62485459 -1.2912354 1.62485459 0 0 Z " transform="translate(230,270)" style="fill: #000000;"/><path d="M0 0 C2.80562038 0.97586796 4.07075137 1.69457119 5.875 4 C5.545 4.99 5.215 5.98 4.875 7 C4.875 6.34 4.875 5.68 4.875 5 C0.585 5 -3.705 5 -8.125 5 C-3.97865854 0 -3.97865854 0 0 0 Z " transform="translate(226.125,242)" style="fill: #000000;"/><path d="M0 0 C0 1.32 0 2.64 0 4 C-0.99 4.495 -0.99 4.495 -2 5 C-2.65213292 7.02463255 -2.65213292 7.02463255 -3 9 C-2.360625 9.268125 -1.72125 9.53625 -1.0625 9.8125 C1 11 1 11 2 14 C-1.65316671 12.75023244 -2.78065836 12.32901247 -5 9 C-4.36842105 0 -4.36842105 0 0 0 Z " transform="translate(238,227)" style="fill: #000000;"/><path d="M0 0 C3.81936528 1.55603771 6.26044438 3.95604931 9 7 C9 7.66 9 8.32 9 9 C7.35 9.66 5.7 10.32 4 11 C3.79503906 10.37351562 3.59007812 9.74703125 3.37890625 9.1015625 C3.10949219 8.28429687 2.84007812 7.46703125 2.5625 6.625 C2.16224609 5.40683594 2.16224609 5.40683594 1.75390625 4.1640625 C1.04820271 1.98968201 1.04820271 1.98968201 0 0 Z " transform="translate(197,288)" style="fill: #000000;"/><path d="M0 0 C0.99 0.33 1.98 0.66 3 1 C2.0409375 1.86625 2.0409375 1.86625 1.0625 2.75 C-0.98223868 4.98062401 -1.58205199 6.07436391 -2 9 C-1.01 9.33 -0.02 9.66 1 10 C0.67 11.32 0.34 12.64 0 14 C-2.0625 12.4375 -2.0625 12.4375 -4 10 C-3.93541482 6.31864501 -3.78095253 3.96838114 -1.4375 1.0625 C-0.7259375 0.5365625 -0.7259375 0.5365625 0 0 Z " transform="translate(237,278)" style="fill: #000000;"/><path d="M0 0 C3.875 1.75 3.875 1.75 5 4 C7.02463255 4.65213292 7.02463255 4.65213292 9 5 C9.33 4.01 9.66 3.02 10 2 C11.32 2.33 12.64 2.66 14 3 C12.4375 5.0625 12.4375 5.0625 10 7 C6.41676539 6.93713623 4.016653 6.72149568 1.0625 4.625 C0 3 0 3 0 0 Z " transform="translate(268,269)" style="fill: #000000;"/><path d="M0 0 C0.33 0 0.66 0 1 0 C1.33 2.97 1.66 5.94 2 9 C-1.3 9 -4.6 9 -8 9 C-6.8553125 7.88625 -6.8553125 7.88625 -5.6875 6.75 C-3.55897715 4.57197662 -1.80222694 2.43300637 0 0 Z " transform="translate(263,265)" style="fill: #000000;"/><path d="M0 0 C3.3 0 6.6 0 10 0 C9.67 3.3 9.34 6.6 9 10 C6.66475218 7.74259377 4.81294927 5.7194239 3 3 C2.01 2.67 1.02 2.34 0 2 C0 1.34 0 0.68 0 0 Z " transform="translate(255,244)" style="fill: #000000;"/><path d="M0 0 C3.45550197 0.79742353 4.5055833 2.70040118 6.4375 5.5625 C4.7875 5.2325 3.1375 4.9025 1.4375 4.5625 C1.4375 3.9025 1.4375 3.2425 1.4375 2.5625 C-2.35838866 3.10476981 -4.03461993 4.76377563 -6.5625 7.5625 C-6.8925 6.5725 -7.2225 5.5825 -7.5625 4.5625 C-5.08751748 2.29965884 -3.31211959 0.72705064 0 0 Z " transform="translate(275.5625,241.4375)" style="fill: #000000;"/><path d="M0 0 C3 1 3 1 4 3 C4.375 5.875 4.375 5.875 4 9 C1.5 11.375 1.5 11.375 -1 13 C-1.66 12.67 -2.32 12.34 -3 12 C-2.505 11.505 -2.01 11.01 -1.5 10.5 C0.66978095 6.88369842 0.20888419 4.17768384 0 0 Z " transform="translate(263,228)" style="fill: #000000;"/><path d="M0 0 C2.4375 0.8125 2.4375 0.8125 5 2 C5.33 2.99 5.66 3.98 6 5 C5.01 6.485 5.01 6.485 4 8 C3.01 7.67 2.02 7.34 1 7 C1.33 6.01 1.66 5.02 2 4 C0.02 4 -1.96 4 -4 4 C-2.68 2.68 -1.36 1.36 0 0 Z " transform="translate(209,226)" style="fill: #000000;"/><path d="M0 0 C0.66 0.33 1.32 0.66 2 1 C1.34 2.65 0.68 4.3 0 6 C2.31 5.34 4.62 4.68 7 4 C6.67 4.99 6.34 5.98 6 7 C3.1875 7.625 3.1875 7.625 0 8 C-0.99 7.34 -1.98 6.68 -3 6 C-2.42655063 3.13275314 -2.1385485 2.1385485 0 0 Z " transform="translate(288,284)" style="fill: #000000;"/><path d="M0 0 C2.125 0.9375 2.125 0.9375 4 2 C2.68 2.33 1.36 2.66 0 3 C0.309375 3.61875 0.61875 4.2375 0.9375 4.875 C1.625 6.25 2.3125 7.625 3 9 C0.36 8.34 -2.28 7.68 -5 7 C-2.25 1.125 -2.25 1.125 0 0 Z " transform="translate(267,214)" style="fill: #000000;"/><path d="M0 0 C0.66 0.33 1.32 0.66 2 1 C1.34 3.64 0.68 6.28 0 9 C-2.475 8.01 -2.475 8.01 -5 7 C-3.70700306 4.11562221 -2.34058637 2.12780579 0 0 Z " transform="translate(301,288)" style="fill: #000000;"/><path d="M0 0 C0.66 0.33 1.32 0.66 2 1 C2.40729228 3.32156597 2.74438677 5.6568787 3 8 C2.01 7.34 1.02 6.68 0 6 C0 5.34 0 4.68 0 4 C-1.65 5.32 -3.3 6.64 -5 8 C-5.3125 5.6875 -5.3125 5.6875 -5 3 C-2.625 1.125 -2.625 1.125 0 0 Z " transform="translate(211,271)" style="fill: #000000;"/><path d="M0 0 C2.375 0.75 2.375 0.75 5 2 C5.66 3.32 6.32 4.64 7 6 C2.545 7.485 2.545 7.485 -2 9 C-0.35 6.69 1.3 4.38 3 2 C2.01 1.67 1.02 1.34 0 1 C0 0.67 0 0.34 0 0 Z " transform="translate(231,215)" style="fill: #000000;"/><path d="M0 0 C0.66 0 1.32 0 2 0 C2.6875 2.25 2.6875 2.25 3 5 C1.5625 7.3125 1.5625 7.3125 0 9 C-1.32 8.34 -2.64 7.68 -4 7 C-4 6.01 -4 5.02 -4 4 C-2.02 4.495 -2.02 4.495 0 5 C0 3.35 0 1.7 0 0 Z " transform="translate(280,215)" style="fill: #000000;"/><path d="M0 0 C2.31 0.33 4.62 0.66 7 1 C5.95125002 3.62187494 5.35068687 4.79371361 2.875 6.25 C2.25625 6.4975 1.6375 6.745 1 7 C0.67 4.69 0.34 2.38 0 0 Z " transform="translate(286,295)" style="fill: #000000;"/><path d="M0 0 C1.65 0.33 3.3 0.66 5 1 C5.625 3.375 5.625 3.375 6 6 C5.34 6.66 4.68 7.32 4 8 C4 6.35 4 4.7 4 3 C2.35 3.66 0.7 4.32 -1 5 C-0.67 3.35 -0.34 1.7 0 0 Z " transform="translate(277,295)" style="fill: #000000;"/><path d="M0 0 C1.32 0.33 2.64 0.66 4 1 C4 2.32 4 3.64 4 5 C1.525 4.01 1.525 4.01 -1 3 C-1 4.65 -1 6.3 -1 8 C-1.66 6.68 -2.32 5.36 -3 4 C-2.01 2.68 -1.02 1.36 0 0 Z " transform="translate(220,295)" style="fill: #000000;"/><path d="M0 0 C0.33 1.32 0.66 2.64 1 4 C2.65 3.67 4.3 3.34 6 3 C6 3.99 6 4.98 6 6 C4.02 6.99 4.02 6.99 2 8 C0.4375 6.25 0.4375 6.25 -1 4 C-0.6875 1.75 -0.6875 1.75 0 0 Z " transform="translate(218,216)" style="fill: #000000;"/><path d="M0 0 C1.98 0 3.96 0 6 0 C5.67 1.98 5.34 3.96 5 6 C3.68 5.67 2.36 5.34 1 5 C0.67 3.35 0.34 1.7 0 0 Z " transform="translate(208,296)" style="fill: #000000;"/><path d="M0 0 C0.99 0.66 1.98 1.32 3 2 C1.35 2 -0.3 2 -2 2 C-1.34 3.65 -0.68 5.3 0 7 C-1.32 7 -2.64 7 -4 7 C-4.33 5.68 -4.66 4.36 -5 3 C-3.35 2.01 -1.7 1.02 0 0 Z " transform="translate(290,226)" style="fill: #000000;"/><path d="M0 0 C3.875 1.875 3.875 1.875 5 3 C5.23192865 4.51469448 5.41215238 6.03754562 5.5625 7.5625 C5.64628906 8.38878906 5.73007813 9.21507812 5.81640625 10.06640625 C5.87699219 10.70449219 5.93757812 11.34257812 6 12 C5.01 12.495 5.01 12.495 4 13 C3.896875 11.783125 3.79375 10.56625 3.6875 9.3125 C3.23780688 5.58930552 2.21617222 3.08337005 0 0 Z " transform="translate(214,279)" style="fill: #000000;"/><path d="M0 0 C0.99 0.66 1.98 1.32 3 2 C2.34 3.32 1.68 4.64 1 6 C0.01 5.67 -0.98 5.34 -2 5 C-1.34 3.35 -0.68 1.7 0 0 Z " transform="translate(244,280)" style="fill: #000000;"/><path d="M0 0 C1.65 0.33 3.3 0.66 5 1 C4.01 2.485 4.01 2.485 3 4 C1.68 3.67 0.36 3.34 -1 3 C-0.67 2.01 -0.34 1.02 0 0 Z " transform="translate(225,263)" style="fill: #000000;"/><path d="M0 0 C1.32 0.66 2.64 1.32 4 2 C3.67 2.66 3.34 3.32 3 4 C0.03 3.505 0.03 3.505 -3 3 C-2.01 2.01 -1.02 1.02 0 0 Z " transform="translate(232,257)" style="fill: #000000;"/><path d="M0 0 C0.99 0 1.98 0 3 0 C4 3 4 3 3 5 C1.68 4.67 0.36 4.34 -1 4 C-0.67 2.68 -0.34 1.36 0 0 Z " transform="translate(254,233)" style="fill: #000000;"/><path d="M0 0 C2 3 2 3 1.625 5.1875 C1.41875 5.785625 1.2125 6.38375 1 7 C0.34 7 -0.32 7 -1 7 C-1.625 5.1875 -1.625 5.1875 -2 3 C-1.34 2.01 -0.68 1.02 0 0 Z " transform="translate(250,309)" style="fill: #000000;"/><path d="M0 0 C0.99 0.99 1.98 1.98 3 3 C2.01 3.99 1.02 4.98 0 6 C-0.66 4.68 -1.32 3.36 -2 2 C-1.34 1.34 -0.68 0.68 0 0 Z " transform="translate(255,280)" style="fill: #000000;"/><path d="M0 0 C0.99 0.33 1.98 0.66 3 1 C2.67 2.65 2.34 4.3 2 6 C1.34 6 0.68 6 0 6 C-1.125 2.25 -1.125 2.25 0 0 Z " transform="translate(249,274)" style="fill: #000000;"/><path d="M0 0 C0.99 0.66 1.98 1.32 3 2 C2.67 2.99 2.34 3.98 2 5 C0.68 4.67 -0.64 4.34 -2 4 C-2 3.01 -2 2.02 -2 1 C-1.34 0.67 -0.68 0.34 0 0 Z " transform="translate(273,262)" style="fill: #000000;"/><path d="M0 0 C0.99 0.33 1.98 0.66 3 1 C2.625 2.9375 2.625 2.9375 2 5 C1.01 5.495 1.01 5.495 0 6 C-0.38218767 4.34385343 -0.71395102 2.67542976 -1 1 C-0.67 0.67 -0.34 0.34 0 0 Z " transform="translate(249,203)" style="fill: #000000;"/></svg>